<svg width="30" height="29" viewBox="0 0 30 29" fill="none" xmlns="http://www.w3.org/2000/svg">
<path d="M15.2223 2.60113C19.0817 2.60113 19.5387 2.61806 21.0565 2.68576C22.4671 2.74783 23.2288 2.98481 23.7366 3.18229C24.408 3.44184 24.8933 3.75781 25.3955 4.25998C25.9033 4.7678 26.2136 5.2474 26.4731 5.91884C26.6706 6.42665 26.9076 7.19401 26.9697 8.59896C27.0374 10.1224 27.0543 10.5794 27.0543 14.4332C27.0543 18.2925 27.0374 18.7496 26.9697 20.2674C26.9076 21.678 26.6706 22.4397 26.4731 22.9475C26.2136 23.6189 25.8976 24.1042 25.3955 24.6063C24.8876 25.1141 24.408 25.4245 23.7366 25.684C23.2288 25.8815 22.4614 26.1185 21.0565 26.1806C19.533 26.2483 19.076 26.2652 15.2223 26.2652C11.3629 26.2652 10.9059 26.2483 9.38808 26.1806C7.97749 26.1185 7.21577 25.8815 6.70795 25.684C6.03651 25.4245 5.55127 25.1085 5.0491 24.6063C4.54129 24.0985 4.23096 23.6189 3.97141 22.9475C3.77393 22.4397 3.53695 21.6723 3.47488 20.2674C3.40717 18.7439 3.39025 18.2869 3.39025 14.4332C3.39025 10.5738 3.40717 10.1168 3.47488 8.59896C3.53695 7.18837 3.77393 6.42665 3.97141 5.91884C4.23096 5.2474 4.54693 4.76215 5.0491 4.25998C5.55691 3.75217 6.03651 3.44184 6.70795 3.18229C7.21577 2.98481 7.98313 2.74783 9.38808 2.68576C10.9059 2.61806 11.3629 2.60113 15.2223 2.60113ZM15.2223 0C11.3008 0 10.8099 0.0169271 9.26959 0.0846354C7.73486 0.152344 6.67974 0.400608 5.76568 0.756076C4.81212 1.12847 4.00526 1.61936 3.20405 2.42622C2.39719 3.22743 1.9063 4.03429 1.53391 4.9822C1.17844 5.90191 0.930176 6.95139 0.862467 8.48611C0.794759 10.0321 0.777832 10.523 0.777832 14.4444C0.777832 18.3659 0.794759 18.8568 0.862467 20.3971C0.930176 21.9319 1.17844 22.987 1.53391 23.901C1.9063 24.8546 2.39719 25.6615 3.20405 26.4627C4.00526 27.2639 4.81212 27.7604 5.76004 28.1272C6.67974 28.4826 7.72922 28.7309 9.26394 28.7986C10.8043 28.8663 11.2952 28.8832 15.2166 28.8832C19.1381 28.8832 19.629 28.8663 21.1693 28.7986C22.704 28.7309 23.7592 28.4826 24.6732 28.1272C25.6211 27.7604 26.428 27.2639 27.2292 26.4627C28.0304 25.6615 28.527 24.8546 28.8937 23.9067C29.2492 22.987 29.4974 21.9375 29.5652 20.4028C29.6329 18.8624 29.6498 18.3715 29.6498 14.4501C29.6498 10.5286 29.6329 10.0378 29.5652 8.4974C29.4974 6.96267 29.2492 5.90755 28.8937 4.99349C28.5382 4.03429 28.0474 3.22743 27.2405 2.42622C26.4393 1.625 25.6324 1.12847 24.6845 0.761719C23.7648 0.40625 22.7153 0.157986 21.1806 0.0902778C19.6346 0.0169271 19.1437 0 15.2223 0Z" fill="white"/>
<path d="M15.2222 7.0249C11.1258 7.0249 7.80249 10.3483 7.80249 14.4446C7.80249 18.541 11.1258 21.8643 15.2222 21.8643C19.3185 21.8643 22.6419 18.541 22.6419 14.4446C22.6419 10.3483 19.3185 7.0249 15.2222 7.0249ZM15.2222 19.2575C12.5646 19.2575 10.4093 17.1022 10.4093 14.4446C10.4093 11.7871 12.5646 9.63167 15.2222 9.63167C17.8797 9.63167 20.0351 11.7871 20.0351 14.4446C20.0351 17.1022 17.8797 19.2575 15.2222 19.2575Z" fill="white"/>
<path d="M24.6675 6.73123C24.6675 7.69043 23.8889 8.46344 22.9353 8.46344C21.9761 8.46344 21.2031 7.68479 21.2031 6.73123C21.2031 5.77203 21.9818 4.99902 22.9353 4.99902C23.8889 4.99902 24.6675 5.77767 24.6675 6.73123Z" fill="white"/>
</svg>
