<svg width="30" height="29" viewBox="0 0 30 29" fill="none" xmlns="http://www.w3.org/2000/svg">
<path d="M27.4172 0H2.79956C1.62031 0 0.666748 0.93099 0.666748 2.08203V26.8012C0.666748 27.9523 1.62031 28.8889 2.79956 28.8889H27.4172C28.5964 28.8889 29.5556 27.9523 29.5556 26.8069V2.08203C29.5556 0.93099 28.5964 0 27.4172 0ZM9.23749 24.6176H4.9493V10.8277H9.23749V24.6176ZM7.0934 8.94879C5.71666 8.94879 4.60512 7.83724 4.60512 6.46615C4.60512 5.09505 5.71666 3.98351 7.0934 3.98351C8.46449 3.98351 9.57604 5.09505 9.57604 6.46615C9.57604 7.8316 8.46449 8.94879 7.0934 8.94879ZM25.2844 24.6176H21.0018V17.9145C21.0018 16.3177 20.9736 14.2582 18.7731 14.2582C16.5444 14.2582 16.2058 16.0017 16.2058 17.8017V24.6176H11.9289V10.8277H16.0365V12.7122H16.093C16.6628 11.6289 18.0621 10.4835 20.1442 10.4835C24.4832 10.4835 25.2844 13.3385 25.2844 17.0512V24.6176Z" fill="white"/>
</svg>
