<svg width="30" height="25" viewBox="0 0 30 25" fill="none" xmlns="http://www.w3.org/2000/svg">
<path d="M9.97707 24.1806C20.8759 24.1806 26.8387 15.1489 26.8387 7.31897C26.8387 7.06507 26.8331 6.80552 26.8218 6.55161C27.9817 5.71275 28.9828 4.67371 29.7778 3.4833C28.6975 3.96394 27.5505 4.27784 26.376 4.41429C27.6127 3.67301 28.5386 2.50851 28.9822 1.13664C27.8188 1.82611 26.5466 2.31247 25.2199 2.57488C24.326 1.62509 23.1442 0.996226 21.8571 0.7855C20.5699 0.574773 19.2492 0.793925 18.0992 1.40907C16.9491 2.02422 16.0337 3.0011 15.4945 4.18868C14.9553 5.37626 14.8223 6.7084 15.1161 7.97913C12.7604 7.86092 10.4559 7.24897 8.35186 6.18296C6.24784 5.11696 4.39132 3.62069 2.90267 1.79115C2.14606 3.09564 1.91454 4.63927 2.25516 6.10833C2.59577 7.57738 3.48297 8.86162 4.73644 9.70005C3.79541 9.67017 2.875 9.41681 2.05124 8.9609V9.03425C2.0504 10.4032 2.52366 11.7302 3.39059 12.7897C4.25751 13.8492 5.46458 14.5757 6.80662 14.8459C5.93491 15.0844 5.02001 15.1191 4.13271 14.9474C4.51141 16.1248 5.24822 17.1545 6.24031 17.8929C7.2324 18.6313 8.43027 19.0415 9.66674 19.0664C7.56757 20.7153 4.9745 21.6097 2.30515 21.6054C1.83176 21.6047 1.35884 21.5757 0.888916 21.5185C3.60069 23.2583 6.7552 24.1823 9.97707 24.1806Z" fill="white"/>
</svg>
